<svg xmlns="http://www.w3.org/2000/svg" width="26" height="26" viewBox="0 0 26 26"><g fill="#fff" transform="translate(5 -1031.362)"><circle cx="8" cy="1044.362" r="13" fill="#239fdb" fill-rule="evenodd"/><path fill="#0b5ecd" d="M 16.306641 25.5625 A 12.999996 12.999996 0 0 0 16.476562 25.525391 A 12.999996 12.999996 0 0 0 17.710938 25.117188 A 12.999996 12.999996 0 0 0 18.896484 24.585938 A 12.999996 12.999996 0 0 0 20.023438 23.939453 A 12.999996 12.999996 0 0 0 21.080078 23.183594 A 12.999996 12.999996 0 0 0 22.056641 22.326172 A 12.999996 12.999996 0 0 0 22.943359 21.375 A 12.999996 12.999996 0 0 0 23.728516 20.339844 A 12.999996 12.999996 0 0 0 24.408203 19.232422 A 12.999996 12.999996 0 0 0 24.974609 18.0625 A 12.999996 12.999996 0 0 0 25.419922 16.841797 A 12.999996 12.999996 0 0 0 25.740234 15.582031 A 12.999996 12.999996 0 0 0 25.935547 14.296875 A 12.999996 12.999996 0 0 0 25.949219 14.035156 L 18.958984 7.0449219 C 18.665184 6.7511219 18.281866 6.6035156 17.898438 6.6035156 C 17.51501 6.6035156 17.131696 6.7511219 16.837891 7.0449219 L 14.371094 9.5097656 L 8.3769531 8.4433594 L 6.9628906 9.8574219 L 10.498047 13.392578 L 9.2011719 14.695312 L 8.0195312 14.447266 L 6.6054688 15.861328 L 10.140625 19.396484 L 16.306641 25.5625 z " transform="translate(-5 1031.362)"/><path fill="none" stroke="#fff" stroke-linecap="round" stroke-linejoin="round" d="m 13.003906,1.4960938 c -0.383428,0 -0.766742,0.1476062 -1.060547,0.4414062 L 9.4765625,4.4023438 3.4824219,3.3359375 2.0683594,4.75 7.3476562,6.5332031 4.3066406,9.5878906 3.125,9.3398438 1.7109375,10.753906 4.1992188,11.800781 5.2460938,14.289062 6.6621094,12.875 6.4199219,11.703125 9.4746094,8.6484375 11.269531,13.917969 12.683594,12.503906 11.623047,6.5 14.064453,4.0585938 c 0.58605,-0.5892001 0.58747,-1.5336938 0,-2.1210938 -0.2938,-0.2938 -0.677118,-0.4414062 -1.060547,-0.4414062 z" transform="translate(-.106 1036.47)"/></g></svg>